# xmcd
#
# Track frame offsets:
#	150
#	17850
#	29580
#	48652
#	61067
#	71512
#	85245
#	107207
#	122822
#	141522
#	157357
#	173735
#	189832
#	203370
#	217510
#	230282
#	241965
#	257595
#	276625
#	294672
#
# Disc length: 4054
#
# Revision: 2
# Processed by: cddbd v1.5.1PL0 Copyright (c) Steve Scherf et al.
# Submitted via: CDValet v3.01 - Copyright (c) 1997 Greg Leichner
# Normalized: r1:TDELIM( - )
#
DISCID=270fd414
DTITLE=Various Country Artists - Country North - Disk 2
DYEAR=1900
DGENRE=
TTITLE0=Leader of the band - Mercey Brothers
TTITLE1=Love when it leaves here - Canadian Zephyr
TTITLE2=Brown eyed girl - The Good Brothers
TTITLE3=The star - Marie Bottrell
TTITLE4=His own free will - Morris P. Rainville
TTITLE5=Zydeco - Bobby Lalonde
TTITLE6=Leah - J.K. Gulley
TTITLE7=Life is just a holiday - Colleen Peterson and Gilles Godard
TTITLE8=The lucky ones - Willie P. Bennett
TTITLE9=Do what you gotta do - Mark Laforme
TTITLE10=Wasn't that a party - The rovers
TTITLE11=Home from the forest - Ronnie Hawkins
TTITLE12=The farmer's song - Murray McLaughlan
TTITLE13=You were on my mind - Sylvia Tyson
TTITLE14=Half a world away - Tommy Hunter
TTITLE15=Turn  down the music - Myrna Laurie
TTITLE16=We can dream - Kimberley Richards
TTITLE17=For crying out loud - Kelita
TTITLE18=Crazy infatuation - Diane Raeside
TTITLE19=Fiddle Texas style - Candi Cain
EXTD=
EXTT0=
EXTT1=
EXTT2=
EXTT3=
EXTT4=
EXTT5=
EXTT6=
EXTT7=
EXTT8=
EXTT9=
EXTT10=
EXTT11=
EXTT12=
EXTT13=
EXTT14=
EXTT15=
EXTT16=
EXTT17=
EXTT18=
EXTT19=
PLAYORDER=
